# xmcd
#
# Track frame offsets:
#	150
#	20732
#	38870
#	60205
#	79565
#	111007
#	127847
#	149230
#	170202
#	192377
#
# Disc length: 2808 seconds
#
# Revision: 9
# Processed by: cddbd v1.5.2PL0 Copyright (c) Steve Scherf et al.
# Submitted via: Jack! The Knife 20 Magnifico
#
DISCID=890af60a
DTITLE=Ozzy Osbourne - Black Rain
DYEAR=2007
DGENRE=Metal
TTITLE0=Not Going Away
TTITLE1=I Don't Wanna Stop
TTITLE2=Black Rain
TTITLE3=Lay Your World On Me
TTITLE4=The Almighty Dollar
TTITLE5=11 Silver
TTITLE6=Civilize The Universe
TTITLE7=Here For You
TTITLE8=Countdown's Begun
TTITLE9=Trap Door
EXTD=Kevin Churko
EXTT0=Osbourne, Wylde, Churko
EXTT1=Osbourne, Wylde, Churko
EXTT2=Osbourne, Wylde, Churko
EXTT3=Osbourne, Wylde, Churko
EXTT4=Osbourne, Churko
EXTT5=Osbourne, Wylde, Churko
EXTT6=Osbourne, Wylde, Churko
EXTT7=Osbourne, Wylde, Churko
EXTT8=Osbourne, Wylde, Churko
EXTT9=Osbourne, Churko
PLAYORDER=
